<?xml version="1.0" standalone="no"?> <!DOCTYPE svg PUBLIC "-//W3C//DTD SVG 1.0//EN" "http://www.w3.org/TR/2001/REC-SVG-20010904/DTD/svg10.dtd" > <svg xmlns="http://www.w3.org/2000/svg" width="100%" height="100%">
<defs >
<font id="gothambookitalic" horiz-adv-x="1018" ><font-face
    font-family="Gotham Book"
    units-per-em="2048"
    panose-1="0 0 0 0 0 0 0 0 0 0"
    ascent="1639"
    descent="-410"
    alphabetic="0" />
<missing-glyph horiz-adv-x="1024" d="M0 -410V1638H1024V-410H0ZM102 -156L455 614L102 1384V-156ZM145 -307H879L512 492L145 -307ZM512 737L879 1536H145L512 737ZM922 -156V1384L569 614L922 -156Z" />
<glyph unicode=" " glyph-name="space" horiz-adv-x="614" />
<glyph unicode="!" glyph-name="exclam" horiz-adv-x="555" d="M199 406L395 1319L428 1434H612L582 1319L289 406H199ZM41 0L98 215H287L229 0H41Z" />
<glyph unicode="&quot;" glyph-name="quotedbl" horiz-adv-x="905" d="M205 877L391 1434H580L578 1423L293 877H205ZM608 877L795 1434H983L981 1423L696 877H608Z" />
<glyph unicode="#" glyph-name="numbersign" horiz-adv-x="1396" d="M158 0L285 362H59L94 504H334L485 938H236L272 1079H535L657 1434H803L678 1079H1069L1192 1434H1337L1212 1079H1440L1403 938H1165L1012 504H1264L1227 362H963L838 0H692L819 362H428L303
0H158ZM479 504H866L1020 938H631L479 504Z" />
<glyph unicode="$" glyph-name="dollar" horiz-adv-x="1275" d="M868 1552H999L961 1413Q1160 1367 1303 1229L1190 1120Q1070 1237 911 1272L776 784Q957 716 1040 632T1124 418Q1124 235 974 118T588 0H561L504 -201H373L432 12Q155 59 -4 254L115 354Q258 189
481 154L625 670Q433 741 349 821T264 1032Q264 1204 407 1319T764 1434Q811 1434 834 1432L868 1552ZM958 401Q958 475 908 527T733 629L596 143H608Q767 143 862 215T958 401ZM430 1049Q430 973 483 924T668 823L795 1288Q780 1290 750 1290Q607 1290 519 1221T430
1049Z" />
<glyph unicode="%" glyph-name="percent" horiz-adv-x="1714" d="M131 0L825 717L1522 1434H1683L987 717L293 0H131ZM475 709Q348 709 267 794T186 1008Q186 1101 222 1187T322 1339Q431 1450 578 1450Q707 1450 787 1365T868 1151Q868 1058 832 971T731 819Q621
709 475 709ZM485 821Q569 821 639 891Q686 938 713 1005T741 1141Q741 1231 696 1284T569 1337Q485 1337 416 1268Q368 1220 341 1153T313 1018Q313 927 358 874T485 821ZM1235 -16Q1108 -16 1027 69T946 283Q946 376 981 462T1081 614Q1192 725 1339 725Q1466
725 1547 640T1628 426Q1628 333 1593 246T1493 94Q1381 -16 1235 -16ZM1245 96Q1329 96 1399 166Q1446 213 1473 280T1501 416Q1501 506 1456 559T1329 612Q1245 612 1176 543Q1128 495 1101 428T1073 293Q1073 203 1119 150T1245 96Z" />
<glyph unicode="&amp;" glyph-name="ampersand" horiz-adv-x="1417" d="M1229 707L1337 637Q1206 422 1087 293L1262 49L1141 -29L983 193Q866 84 747 32T481 -20Q298 -20 179 78T59 346Q59 510 179 633T535 821Q444 964 444 1087Q444 1243 559 1350T842 1458Q1001
1458 1097 1372T1194 1149Q1194 1089 1173 1036T1102 932T965 834T752 752L1008 395Q1122 523 1229 707ZM500 119Q707 119 903 297L604 719Q411 667 315 572T219 358Q219 249 294 184T500 119ZM596 1087Q596 981 680 854Q879 910 960 981T1042 1141Q1042 1222 986
1273T836 1325Q736 1325 666 1256T596 1087Z" />
<glyph unicode="&apos;" glyph-name="quotesingle" horiz-adv-x="501" d="M205 877L391 1434H580L578 1423L293 877H205Z" />
<glyph unicode="(" glyph-name="parenleft" horiz-adv-x="888" d="M541 -289Q180 24 180 442Q180 634 256 815T483 1147Q680 1344 991 1468L1047 1352Q783 1238 612 1067Q475 930 409 771T342 446Q342 345 364 254T429 84T520 -58T635 -190L541 -289Z" />
<glyph unicode=")" glyph-name="parenright" horiz-adv-x="888" d="M379 1473Q739 1160 739 741Q739 548 663 368T436 37Q237 -162 -72 -285L-127 -168Q139 -52 307 117Q578 387 578 737Q578 838 556 930T490 1100T399 1242T285 1374L379 1473Z" />
<glyph unicode="*" glyph-name="asterisk" horiz-adv-x="880" d="M557 809L453 836L541 1079L297 991L266 1096L526 1141L324 1309L403 1386L569 1188L614 1440L719 1413L631 1171L874 1260L905 1153L645 1110L848 942L768 864L602 1063L557 809Z" />
<glyph unicode="+" glyph-name="plus" horiz-adv-x="1280" d="M483 225L596 647H172L211 795H635L750 1217H903L788 795H1214L1174 647H750L637 225H483Z" />
<glyph unicode="," glyph-name="comma" horiz-adv-x="522" d="M-76 -248L-92 -178Q76 -134 100 0H25L84 215H270L221 31Q185 -100 117 -162T-76 -248Z" />
<glyph unicode="-" glyph-name="hyphen" horiz-adv-x="839" d="M135 532L178 698H750L707 532H135Z" />
<glyph unicode="." glyph-name="period" horiz-adv-x="522" d="M25 0L84 215H270L213 0H25Z" />
<glyph unicode="/" glyph-name="slash" horiz-adv-x="1040" d="M-256 -262L1192 1634H1352L-96 -262H-256Z" />
<glyph unicode="0" glyph-name="zero" horiz-adv-x="1464" d="M903 1458Q1138 1458 1271 1305T1405 905Q1405 701 1328 506T1114 176Q916 -25 659 -25Q424 -25 291 128T158 528Q158 732 235 927T446 1257Q647 1458 903 1458ZM670 123Q839 123 987 268Q1101 384
1169 556T1237 905Q1237 1086 1146 1198T891 1311Q723 1311 575 1165Q461 1050 394 878T326 528Q326 347 415 235T670 123Z" />
<glyph unicode="1" glyph-name="one" horiz-adv-x="739" d="M193 0L530 1264L240 1180L236 1321L621 1444H741L354 0H193Z" />
<glyph unicode="2" glyph-name="two" horiz-adv-x="1218" d="M-45 0L-12 127L797 750Q921 846 978 923T1036 1087Q1036 1184 963 1245T764 1307Q561 1307 373 1110L264 1212Q490 1454 770 1454Q963 1454 1083 1355T1204 1098Q1204 1014 1168 939T1068 797T897
649L248 147H1014L975 0H-45Z" />
<glyph unicode="3" glyph-name="three" horiz-adv-x="1239" d="M508 -25Q326 -25 199 49T6 254L133 336Q255 123 516 123Q685 123 798 213T911 440Q911 560 813 622T541 684H475L455 776L1034 1288H328L369 1434H1303L1270 1315L686 805Q858 790 968 700T1079
453Q1079 276 948 145Q869 66 754 21T508 -25Z" />
<glyph unicode="4" glyph-name="four" horiz-adv-x="1329" d="M725 0L817 340H72L51 461L1114 1444H1270L1010 475H1233L1196 340H973L883 0H725ZM264 475H854L1051 1206L264 475Z" />
<glyph unicode="5" glyph-name="five" horiz-adv-x="1234" d="M514 -25Q349 -25 222 46T18 231L143 324Q292 121 526 121Q709 121 825 225T942 473Q942 600 854 674T621 748Q472 748 328 670L236 743L461 1434H1262L1219 1284H565L414 834Q460 856 532 872T659
889Q865 889 988 780T1112 485Q1112 290 969 150Q797 -25 514 -25Z" />
<glyph unicode="6" glyph-name="six" horiz-adv-x="1312" d="M647 -25Q541 -25 451 9T299 106Q158 249 158 504Q158 728 234 924T442 1251Q649 1458 918 1458Q1177 1458 1341 1274L1235 1163Q1097 1311 905 1311Q711 1311 559 1159Q474 1074 413 948T338 692Q403
783 511 842T752 901Q956 901 1080 784T1204 489Q1204 290 1057 141Q889 -25 647 -25ZM651 117Q820 117 934 229Q1038 335 1038 477Q1038 594 955 678T721 762Q540 762 426 645Q326 550 326 418T410 207Q496 117 651 117Z" />
<glyph unicode="7" glyph-name="seven" horiz-adv-x="1200" d="M125 0L1069 1286H289L330 1434H1303L1268 1313L315 0H125Z" />
<glyph unicode="8" glyph-name="eight" horiz-adv-x="1325" d="M606 -20Q376 -20 227 89T78 362T194 628T496 764Q405 801 347 880T289 1061Q289 1225 435 1339T807 1454Q1019 1454 1154 1350T1290 1083Q1290 941 1191 843T936 713Q1039 676 1109 592T1180 395Q1180
279 1108 185T903 35T606 -20ZM616 119Q794 119 904 198T1016 403Q1016 512 913 589T643 666Q463 666 353 582T242 379Q240 264 343 192T616 119ZM770 799Q937 799 1033 878T1130 1067T1040 1245T803 1315Q647 1315 548 1239T449 1047Q449 941 538 870T770 799Z"
/>
<glyph unicode="9" glyph-name="nine" horiz-adv-x="1312" d="M498 -25Q366 -25 254 27T57 172L164 283Q313 123 506 123T852 276Q939 361 998 482T1071 731Q1006 641 900 579T655 516Q451 516 327 635T203 936Q203 1141 354 1292Q523 1458 764 1458Q868 1458
959 1424T1112 1327Q1253 1186 1253 922Q1253 702 1176 508T967 182Q758 -25 498 -25ZM692 655Q862 655 979 772Q1028 820 1055 885T1083 1018Q1083 1147 1001 1227Q908 1317 760 1317Q593 1317 479 1206Q371 1098 371 948Q369 827 453 741T692 655Z" />
<glyph unicode=":" glyph-name="colon" horiz-adv-x="536" d="M33 0L90 215H279L221 0H33ZM258 844L317 1059H506L446 844H258Z" />
<glyph unicode=";" glyph-name="semicolon" horiz-adv-x="536" d="M-68 -248L-84 -178Q3 -155 48 -112T106 0H33L90 215H279L229 31Q193 -100 125 -162T-68 -248ZM258 844L317 1059H506L446 844H258Z" />
<glyph unicode="&lt;" glyph-name="less" horiz-adv-x="1280" d="M997 176L162 653L199 788L1290 1266L1245 1096L352 711L1038 324L997 176Z" />
<glyph unicode="=" glyph-name="equal" horiz-adv-x="1280" d="M135 406L178 557H1118L1077 406H135ZM266 885L305 1036H1247L1206 885H266Z" />
<glyph unicode="&gt;" glyph-name="greater" horiz-adv-x="1280" d="M90 176L135 346L1028 731L342 1118L383 1266L1219 788L1182 653L90 176Z" />
<glyph unicode="?" glyph-name="question" horiz-adv-x="1099" d="M387 406L444 737L457 748Q680 763 811 849T942 1077Q942 1185 866 1245T670 1305Q564 1305 468 1259T297 1141L205 1247Q410 1452 686 1452Q879 1452 994 1349T1110 1090Q1110 993 1070 913T956
778T787 685T573 631L492 406H387ZM240 0L297 215H485L428 0H240Z" />
<glyph unicode="@" glyph-name="at" horiz-adv-x="2007" d="M987 -326Q732 -326 537 -226T236 56T129 475Q129 669 208 850T422 1165T742 1379T1133 1460Q1319 1460 1473 1404T1729 1249T1886 1021T1942 741Q1942 626 1915 527T1844 359T1743 241T1624 168T1501
145Q1396 145 1330 196T1245 338Q1084 141 879 141Q739 141 646 233T553 483Q553 595 596 698T711 873T873 989T1057 1032Q1172 1032 1247 976T1358 831L1413 1012L1546 977L1393 483Q1374 429 1374 379Q1374 310 1413 269T1526 227Q1569 227 1615 246T1706 308T1786
409T1844 554T1866 741Q1866 876 1815 994T1672 1200T1440 1340T1133 1391Q1007 1391 887 1357T665 1263T477 1116T332 930T239 712T205 475Q205 147 420 -54T987 -256Q1209 -256 1409 -164L1440 -227Q1225 -326 987 -326ZM920 268Q1013 268 1102 323T1248 472T1305
666Q1305 771 1239 838T1065 905Q920 905 815 784T709 496Q709 390 767 329T920 268Z" />
<glyph unicode="A" glyph-name="A" horiz-adv-x="1558" d="M-82 0L958 1444H1114L1380 0H1214L1149 379H367L96 0H-82ZM469 526H1122L993 1260L469 526Z" />
<glyph unicode="B" glyph-name="B" horiz-adv-x="1468" d="M61 0L446 1434H983Q1192 1434 1309 1344T1427 1100Q1427 952 1328 854T1069 723Q1184 688 1253 615T1323 426Q1323 237 1161 119T721 0H61ZM260 145H739Q933 145 1046 222T1159 432Q1159 538 1069 594T829
651H395L260 145ZM434 795H842Q1034 795 1148 872T1262 1079Q1262 1180 1186 1234T969 1288H567L434 795Z" />
<glyph unicode="C" glyph-name="C" horiz-adv-x="1505" d="M784 -27Q614 -27 477 43T257 251T174 567Q174 745 246 912T444 1206Q562 1324 714 1391T1034 1458Q1225 1458 1362 1375T1575 1151L1436 1065Q1365 1185 1268 1247T1020 1309Q894 1309 779 1258T571
1116Q465 1009 405 866T344 573Q344 369 469 247T793 125Q929 125 1033 174T1237 319L1346 213Q1233 101 1099 37T784 -27Z" />
<glyph unicode="D" glyph-name="D" horiz-adv-x="1583" d="M61 0L446 1434H793Q972 1434 1115 1385T1352 1243Q1507 1088 1507 831Q1507 502 1282 272Q1152 142 963 71T547 0H61ZM1219 1139Q1072 1284 782 1284H569L264 150H567Q747 150 898 207T1159 375Q1246
461 1292 575T1339 821Q1339 1021 1219 1139Z" />
<glyph unicode="E" glyph-name="E" horiz-adv-x="1337" d="M61 0L446 1434H1473L1432 1286H567L436 797H1208L1167 649H397L262 147H1137L1098 0H61Z" />
<glyph unicode="F" glyph-name="F" horiz-adv-x="1347" d="M61 0L446 1434H1477L1438 1284H567L430 772H1208L1167 625H391L223 0H61Z" />
<glyph unicode="G" glyph-name="G" horiz-adv-x="1605" d="M811 -27Q680 -27 565 15T363 133T226 326T176 584Q176 753 246 913T442 1200Q561 1321 719 1389T1057 1458Q1422 1458 1597 1196L1475 1100Q1428 1165 1377 1208T1240 1281T1042 1311Q906 1311 783 1257T565
1108Q463 1004 405 868T346 590Q346 373 477 248T821 123Q1031 123 1192 223L1305 621H872L911 766H1503L1321 123Q1078 -27 811 -27Z" />
<glyph unicode="H" glyph-name="H" horiz-adv-x="1548" d="M61 0L446 1434H608L438 797H1255L1425 1434H1589L1204 0H1040L1214 645H397L223 0H61Z" />
<glyph unicode="I" glyph-name="I" horiz-adv-x="595" d="M76 0L461 1434H623L238 0H76Z" />
<glyph unicode="J" glyph-name="J" horiz-adv-x="1136" d="M397 -20Q235 -20 128 62T-29 285L100 360Q146 243 217 186T399 129Q538 129 641 227Q690 278 725 350T791 537L1032 1434H1196L948 506Q910 367 866 278T752 119Q683 51 591 16T397 -20Z" />
<glyph unicode="K" glyph-name="K" horiz-adv-x="1470" d="M61 0L446 1434H608L381 582L1409 1434H1638L868 803L1276 0H1094L737 709L322 367L223 0H61Z" />
<glyph unicode="L" glyph-name="L" horiz-adv-x="1243" d="M61 0L446 1434H608L264 150H1071L1030 0H61Z" />
<glyph unicode="M" glyph-name="M" horiz-adv-x="1779" d="M61 0L446 1434H598L907 651L1638 1434H1819L1434 0H1270L1581 1161L854 393H846L532 1159L221 0H61Z" />
<glyph unicode="N" glyph-name="N" horiz-adv-x="1609" d="M61 0L446 1434H596L1180 270L1493 1434H1651L1266 0H1137L539 1190L219 0H61Z" />
<glyph unicode="O" glyph-name="O" horiz-adv-x="1724" d="M1016 1458Q1197 1458 1341 1376T1565 1153T1645 838Q1645 666 1576 503T1384 217Q1268 103 1121 38T809 -27Q627 -27 483 55T259 280T180 596Q180 767 250 929T442 1214Q556 1328 704 1393T1016 1458ZM819
123Q945 123 1057 173T1257 311Q1360 414 1417 551T1475 831Q1475 1038 1346 1173T1006 1309Q753 1309 567 1120Q464 1019 407 882T350 600Q350 394 479 259T819 123Z" />
<glyph unicode="P" glyph-name="P" horiz-adv-x="1366" d="M61 0L446 1434H895Q1168 1434 1305 1300Q1407 1195 1407 1034Q1407 833 1272 698Q1182 606 1035 558T700 510H360L223 0H61ZM1174 1194Q1082 1284 889 1284H567L399 653H709Q1013 653 1149 791Q1239
881 1239 1024Q1239 1129 1174 1194Z" />
<glyph unicode="Q" glyph-name="Q" horiz-adv-x="1724" d="M1016 1458Q1197 1458 1341 1376T1565 1153T1645 838Q1645 666 1575 503T1382 217L1362 197L1503 35L1376 -59L1245 106Q1045 -27 809 -27Q627 -27 483 55T259 280T180 596Q180 767 250 929T442 1214Q556
1328 704 1393T1016 1458ZM819 123Q994 123 1151 223L928 489L1055 586L1264 317Q1364 421 1419 555T1475 831Q1475 1038 1346 1173T1006 1309Q753 1309 567 1120Q464 1019 407 882T350 600Q350 394 479 259T819 123Z" />
<glyph unicode="R" glyph-name="R" horiz-adv-x="1468" d="M1044 0L760 557H725H373L223 0H61L446 1434H963Q1232 1434 1366 1303Q1460 1204 1460 1055Q1460 873 1333 743Q1206 616 936 571L1231 0H1044ZM412 702H801Q1076 702 1208 834Q1294 922 1294 1042Q1294
1139 1235 1198Q1149 1284 954 1284H569L412 702Z" />
<glyph unicode="S" glyph-name="S" horiz-adv-x="1304" d="M610 -20Q416 -20 267 51T25 252L147 348Q240 235 353 180T621 125T879 201T983 393Q983 476 919 533T688 655Q583 697 514 733T394 815T319 915T295 1038Q295 1194 406 1300Q558 1454 823 1454Q985 1454
1115 1396T1331 1237L1212 1130Q1050 1309 809 1309Q654 1309 560 1235T465 1057Q465 973 535 918T782 793Q975 718 1064 633T1153 414Q1153 257 1036 137Q961 62 851 21T610 -20Z" />
<glyph unicode="T" glyph-name="T" horiz-adv-x="1261" d="M401 0L745 1284H262L303 1434H1432L1391 1284H907L563 0H401Z" />
<glyph unicode="U" glyph-name="U" horiz-adv-x="1552" d="M711 -23Q461 -23 325 103T188 436Q188 546 219 659L424 1434H588L371 616Q350 547 350 455Q350 308 446 218T725 127Q910 127 1044 258Q1169 387 1227 608L1450 1434H1612L1382 580Q1309 308 1157 156Q978
-23 711 -23Z" />
<glyph unicode="V" glyph-name="V" horiz-adv-x="1468" d="M506 -10L281 1434H453L629 201L1466 1434H1651L651 -10H506Z" />
<glyph unicode="W" glyph-name="W" horiz-adv-x="2217" d="M422 -10L297 1434H465L555 240L1266 1438H1399L1475 240L2204 1434H2386L1487 -10H1346L1264 1147L561 -10H422Z" />
<glyph unicode="X" glyph-name="X" horiz-adv-x="1421" d="M-63 0L672 741L311 1434H489L788 848L1360 1434H1569L860 719L1233 0H1055L743 612L147 0H-63Z" />
<glyph unicode="Y" glyph-name="Y" horiz-adv-x="1357" d="M442 0L598 578L244 1434H424L711 711L1386 1434H1593L754 551L606 0H442Z" />
<glyph unicode="Z" glyph-name="Z" horiz-adv-x="1370" d="M-39 0L-10 109L1212 1288H338L379 1434H1489L1460 1325L238 145H1149L1110 0H-39Z" />
<glyph unicode="[" glyph-name="bracketleft" horiz-adv-x="899" d="M18 -266L475 1434H1061L1028 1311H590L201 -143H637L604 -266H18Z" />
<glyph unicode="\" glyph-name="backslash" horiz-adv-x="1040" d="M731 -262L285 1634H420L866 -262H731Z" />
<glyph unicode="]" glyph-name="bracketright" horiz-adv-x="899" d="M907 1434L451 -266H-135L-102 -143H336L725 1311H289L322 1434H907Z" />
<glyph unicode="^" glyph-name="asciicircum" horiz-adv-x="1024" d="M240 1010L672 1438H795L999 1010H874L717 1325L391 1010H240Z" />
<glyph unicode="_" glyph-name="underscore" horiz-adv-x="1228" d="M-233 -328L-199 -199H1040L1004 -328H-233Z" />
<glyph unicode="`" glyph-name="grave" horiz-adv-x="1024" d="M741 1219L571 1440L737 1516L852 1219H741Z" />
<glyph unicode="a" glyph-name="a" horiz-adv-x="1179" d="M375 -23Q235 -23 137 56T39 270Q39 422 139 522Q270 653 510 653Q685 653 887 596L893 621Q907 673 907 719Q907 823 835 878T621 934Q484 934 322 879L295 1010Q463 1073 645 1073Q843 1073 952 987T1061
745Q1061 675 1038 600L879 0H725L770 166Q606 -23 375 -23ZM424 100Q560 100 681 189T840 416L860 489Q696 537 516 537Q356 537 266 449Q199 385 199 289Q199 204 260 152T424 100Z" />
<glyph unicode="b" glyph-name="b" horiz-adv-x="1349" d="M653 -25Q501 -25 403 48T256 238L193 0H35L436 1495H594L426 877Q605 1081 827 1081Q1009 1081 1128 957T1247 633Q1247 491 1195 365T1051 147Q968 65 866 20T653 -25ZM639 115Q804 115 930 238Q1001
311 1041 410T1081 618Q1081 765 999 853T782 942Q698 942 616 905T469 801Q396 728 354 636T311 444Q311 304 403 210T639 115Z" />
<glyph unicode="c" glyph-name="c" horiz-adv-x="1150" d="M567 -25Q441 -25 336 29T164 190T98 438Q98 568 149 687T291 897Q377 983 488 1032T721 1081Q876 1081 981 1012T1143 834L1016 754Q981 811 945 849T848 915T711 942Q544 942 414 809Q343 738 302 642T260
442Q260 292 352 204T575 115Q737 115 889 254L981 152Q794 -25 567 -25Z" />
<glyph unicode="d" glyph-name="d" horiz-adv-x="1349" d="M874 0L924 180Q739 -25 522 -25Q341 -25 222 100T102 424Q102 568 154 693T299 909Q381 991 484 1036T696 1081Q848 1081 947 1008T1094 819L1274 1495H1432L1032 0H874ZM567 115Q651 115 733 152T883
256Q954 329 996 422T1038 614Q1038 754 947 848T711 942Q543 942 420 819Q349 748 309 648T268 438Q268 292 351 204T567 115Z" />
<glyph unicode="e" glyph-name="e" horiz-adv-x="1206" d="M1087 475H258Q256 461 256 432Q256 287 342 200T575 113Q673 113 748 144T901 238L983 133Q895 58 796 17T567 -25Q357 -25 228 100T98 426Q98 557 151 683T299 903Q477 1081 715 1081Q908 1081 1016
966T1124 676Q1124 575 1087 475ZM412 821Q320 731 279 594H961Q971 624 971 676Q971 793 904 870T707 948Q541 948 412 821Z" />
<glyph unicode="f" glyph-name="f" horiz-adv-x="768" d="M94 0L342 920H197L233 1059H379L412 1182Q450 1327 528 1405Q623 1499 776 1499Q902 1499 987 1454L950 1319Q860 1362 776 1362Q617 1362 563 1161L537 1059H883L844 920H500L252 0H94Z" />
<glyph unicode="g" glyph-name="g" horiz-adv-x="1349" d="M492 -332Q346 -332 209 -283T-27 -147L72 -37Q259 -197 489 -197Q682 -197 786 -88Q871 -7 920 166L948 272Q762 82 543 82Q459 82 383 109T246 185T149 312T113 481Q113 729 291 905Q373 988 483 1034T707
1081Q788 1081 854 1060T965 1001T1041 921T1096 827L1157 1059H1315L1073 152Q1040 31 1000 -46T901 -182Q753 -332 492 -332ZM588 217Q678 217 762 254T911 356Q1040 485 1040 643Q1040 766 951 854T715 942Q539 942 410 813Q279 682 279 502Q279 367 368 292T588
217Z" />
<glyph unicode="h" glyph-name="h" horiz-adv-x="1255" d="M35 0L436 1495H594L430 887Q512 979 599 1030T799 1081Q953 1081 1045 993T1137 754Q1137 696 1110 590L954 0H797L956 600Q973 654 973 719Q973 823 910 881T735 940Q611 940 503 844T352 598L193 0H35Z" />
<glyph unicode="i" glyph-name="i" horiz-adv-x="540" d="M49 0L334 1059H492L207 0H49ZM385 1290L432 1464H612L565 1290H385Z" />
<glyph unicode="j" glyph-name="j" horiz-adv-x="538" d="M-102 -334Q-182 -334 -244 -315L-207 -182Q-156 -197 -117 -197Q-4 -197 35 -53L334 1059H492L188 -70Q152 -201 77 -267T-102 -334ZM385 1290L432 1464H612L565 1290H385Z" />
<glyph unicode="k" glyph-name="k" horiz-adv-x="1163" d="M35 0L436 1495H594L322 477L1034 1059H1249L682 602L973 0H795L549 502L266 276L193 0H35Z" />
<glyph unicode="l" glyph-name="l" horiz-adv-x="540" d="M49 0L451 1495H608L207 0H49Z" />
<glyph unicode="m" glyph-name="m" horiz-adv-x="1945" d="M35 0L317 1059H475L430 887Q514 981 594 1031T782 1081Q908 1081 984 1013T1083 842Q1240 1081 1509 1081Q1653 1081 1743 991T1833 754Q1833 713 1804 590L1647 0H1489L1651 600Q1665 661 1665 719Q1665
822 1607 881T1446 940Q1329 940 1224 843T1079 598L922 0H764L924 600Q940 656 940 719Q940 822 881 881T719 940Q602 940 497 843T352 598L193 0H35Z" />
<glyph unicode="n" glyph-name="n" horiz-adv-x="1255" d="M35 0L317 1059H475L430 887Q512 979 599 1030T799 1081Q953 1081 1045 993T1137 754Q1137 696 1110 590L954 0H797L956 600Q973 654 973 719Q973 823 910 881T735 940Q611 940 503 844T352 598L193 0H35Z" />
<glyph unicode="o" glyph-name="o" horiz-adv-x="1306" d="M723 1081Q939 1081 1072 949T1206 608Q1206 484 1156 369T1016 162Q929 75 817 25T582 -25Q366 -25 233 109T100 451Q100 575 150 690T291 895Q377 982 489 1031T723 1081ZM592 117Q762 117 893 248Q964
319 1004 412T1044 602Q1044 761 953 851T713 942Q545 942 412 809Q341 739 301 646T260 455Q260 296 351 207T592 117Z" />
<glyph unicode="p" glyph-name="p" horiz-adv-x="1349" d="M653 -25Q501 -25 403 48T256 238L104 -328H-53L317 1059H475L426 877Q605 1081 827 1081Q1009 1081 1128 957T1247 633Q1247 491 1195 365T1051 147Q968 65 866 20T653 -25ZM639 115Q804 115 930 238Q1001
311 1041 410T1081 618Q1081 765 999 853T782 942Q698 942 616 905T469 801Q396 728 354 636T311 444Q311 304 403 210T639 115Z" />
<glyph unicode="q" glyph-name="q" horiz-adv-x="1349" d="M522 -25Q341 -25 222 100T102 424Q102 568 154 693T299 909Q381 991 484 1036T696 1081Q848 1081 947 1008T1094 819L1157 1059H1315L944 -328H786L924 180Q739 -25 522 -25ZM567 115Q651 115 733 152T883
256Q954 329 996 422T1038 614Q1038 754 947 848T711 942Q543 942 420 819Q349 748 309 648T268 438Q268 292 351 204T567 115Z" />
<glyph unicode="r" glyph-name="r" horiz-adv-x="823" d="M35 0L317 1059H475L403 782Q621 1095 907 1077L862 907H852Q671 907 519 778T305 418L193 0H35Z" />
<glyph unicode="s" glyph-name="s" horiz-adv-x="1015" d="M444 -23Q319 -23 199 24T-12 162L90 264Q252 109 459 109Q553 109 622 158T692 285Q692 339 648 380T492 465Q335 526 264 589T193 756Q193 894 303 987T594 1081Q704 1081 808 1040T985 936L893 827Q743
950 580 950Q472 950 411 901T350 782Q350 729 394 690T561 602Q712 540 781 475T850 311Q850 166 733 72T444 -23Z" />
<glyph unicode="t" glyph-name="t" horiz-adv-x="821" d="M414 -18Q297 -18 227 36T156 190Q156 243 170 301L336 920H190L227 1059H375L461 1378H616L530 1059H864L827 920H494L330 309Q322 261 322 231Q322 177 360 150T467 123Q541 123 621 156L582 12Q506
-18 414 -18Z" />
<glyph unicode="u" glyph-name="u" horiz-adv-x="1255" d="M455 -23Q302 -23 211 66T119 305Q119 367 145 469L301 1059H459L297 459Q283 398 283 340Q283 236 346 178T518 119Q643 119 752 216T901 463L1061 1059H1219L936 0H778L825 172Q744 80 656 29T455 -23Z" />
<glyph unicode="v" glyph-name="v" horiz-adv-x="1159" d="M350 -8L180 1059H346L465 180L1051 1059H1229L489 -8H350Z" />
<glyph unicode="w" glyph-name="w" horiz-adv-x="1736" d="M281 -8L197 1059H356L412 215L924 1063H1055L1114 215L1624 1059H1788L1128 -8H989L928 827L418 -8H281Z" />
<glyph unicode="x" glyph-name="x" horiz-adv-x="1155" d="M406 1059L606 655L1010 1059H1208L670 535L946 0H772L561 430L127 0H-72L498 549L231 1059H406Z" />
<glyph unicode="y" glyph-name="y" horiz-adv-x="1175" d="M371 2L178 1059H342L489 176L1059 1059H1237L512 -35Q401 -197 300 -265T78 -334Q-47 -334 -154 -260L-68 -141Q-39 -164 8 -179T94 -195Q164 -195 228 -151T371 2Z" />
<glyph unicode="z" glyph-name="z" horiz-adv-x="1124" d="M-41 0L-12 100L891 926H233L270 1059H1155L1126 958L221 133H913L877 0H-41Z" />
<glyph unicode="{" glyph-name="braceleft" horiz-adv-x="989" d="M637 -289Q460 -253 379 -165T297 45Q297 122 344 272Q365 340 365 393Q365 460 324 493T178 526H121L154 649H211Q358 649 428 719Q453 743 472 779T506 863T527 938T543 1012Q563 1114 592 1187T680
1321Q812 1450 1102 1464L1104 1352Q892 1339 797 1243Q724 1171 690 997Q674 916 665 875T627 769T561 666Q493 596 367 578Q516 541 516 406Q516 344 494 276Q451 151 451 66Q451 -29 504 -91T686 -190L637 -289Z" />
<glyph unicode="|" glyph-name="bar" horiz-adv-x="620" d="M33 -262L541 1634H674L164 -262H33Z" />
<glyph unicode="}" glyph-name="braceright" horiz-adv-x="989" d="M381 1464Q558 1428 639 1340T721 1130Q721 1055 674 903Q653 840 653 782Q653 715 694 682T840 649H897L864 526H807Q659 526 590 457Q565 432 546 396T512 312T491 238T475 164Q455 62 426
-11T338 -145Q205 -275 -84 -289L-86 -176Q124 -165 221 -68Q294 5 328 178Q340 240 347 269T369 352T406 443T457 510Q527 580 651 598Q502 635 502 770Q502 831 524 899Q567 1026 567 1110Q567 1205 514 1267T332 1366L381 1464Z" />
<glyph unicode="~" glyph-name="asciitilde" horiz-adv-x="970" d="M262 487L160 532Q212 642 270 696T401 750Q445 750 475 734T545 682T602 635T645 623Q679 623 707 651T772 743L872 700Q822 591 764 537T633 483Q603 483 577 492T535 513T489 551Q451 586
432 598T389 610Q354 610 327 581T262 487Z" />
</font>
</defs>
</svg>
