<?xml version="1.0" standalone="no"?> <!DOCTYPE svg PUBLIC "-//W3C//DTD SVG 1.0//EN" "http://www.w3.org/TR/2001/REC-SVG-20010904/DTD/svg10.dtd" > <svg xmlns="http://www.w3.org/2000/svg" width="100%" height="100%">
<defs >
<font id="gothammedium" horiz-adv-x="1039" ><font-face
    font-family="Gotham Medium"
    units-per-em="2048"
    panose-1="0 0 0 0 0 0 0 0 0 0"
    ascent="1638"
    descent="-409"
    alphabetic="0" />
<missing-glyph horiz-adv-x="1024" d="M0 -410V1638H1024V-410H0ZM145 1536L512 737L879 1536H145ZM102 -156L455 614L102 1384V-156ZM922 1384L569 614L922 -156V1384ZM512 492L145 -307H879L512 492Z" />
<glyph unicode=" " glyph-name="space" horiz-adv-x="614" />
<glyph unicode="!" glyph-name="exclam" horiz-adv-x="618" d="M242 455L164 1362V1434H455V1362L379 455H242ZM174 0V283H446V0H174Z" />
<glyph unicode="&quot;" glyph-name="quotedbl" horiz-adv-x="997" d="M573 821L621 1434H901V1423L700 821H573ZM123 821L170 1434H453V1423L252 821H123Z" />
<glyph unicode="#" glyph-name="numbersign" horiz-adv-x="1433" d="M1278 543V330H1034L979 0H760L815 330H481L426 0H207L262 330H80V543H299L360 899H156V1112H397L453 1434H672L616 1112H950L1006 1434H1225L1169 1112H1354V899H1133L1071 543H1278ZM578 905L514
537H856L920 905H578Z" />
<glyph unicode="$" glyph-name="dollar" horiz-adv-x="1314" d="M1147 1274L1032 1081Q890 1185 754 1214V821Q988 762 1093 664T1198 401V397Q1198 232 1079 126T762 0V-201H584V4Q313 36 100 207L231 395Q413 246 592 215V618Q361 678 258 773T154 1038V1042Q154
1205 272 1311T584 1434V1552H762V1430Q970 1403 1147 1274ZM956 387Q956 457 912 501T754 580V207Q852 217 904 263T956 383V387ZM395 1055Q395 987 437 943T592 864V1227Q496 1217 446 1172T395 1057V1055Z" />
<glyph unicode="%" glyph-name="percent" horiz-adv-x="1738" d="M434 717Q287 717 193 822T98 1079V1083Q98 1237 193 1343T438 1450T680 1345T774 1087V1083Q774 930 679 824T434 717ZM434 1292Q364 1292 323 1233T281 1087V1083Q281 995 325 935T438 874Q508
874 550 933T592 1079V1083Q592 1170 547 1231T434 1292ZM807 762L1292 1434H1495L930 670L446 0H244L807 762ZM1300 -16Q1153 -16 1059 89T965 346V350Q965 504 1060 610T1305 717Q1452 717 1546 611T1640 354V350Q1640 198 1545 91T1300 -16ZM1305 141Q1375 141
1416 200T1458 346V350Q1458 438 1414 498T1300 559Q1230 559 1189 500T1147 354V350Q1147 261 1191 201T1305 141Z" />
<glyph unicode="&amp;" glyph-name="ampersand" horiz-adv-x="1425" d="M1178 -29L987 166Q788 -20 549 -20Q345 -20 213 93T80 389V393Q80 665 385 795Q266 946 266 1094V1098Q266 1248 379 1353T678 1458Q846 1458 952 1359T1059 1112V1108Q1059 854 743 735L989
485Q1069 604 1143 762L1333 662Q1236 466 1139 336L1366 106L1178 -29ZM610 870Q724 912 780 965T836 1094V1098Q836 1170 791 1215T674 1260Q597 1260 550 1212T502 1087V1083Q502 1030 526 983T610 870ZM573 188Q711 188 844 313L524 639Q428 598 381 536T334
401V397Q334 306 401 247T573 188Z" />
<glyph unicode="&apos;" glyph-name="quotesingle" horiz-adv-x="550" d="M123 821L170 1434H455V1423L254 821H123Z" />
<glyph unicode="(" glyph-name="parenleft" horiz-adv-x="903" d="M696 -289Q129 23 129 588T696 1464L805 1298Q584 1152 481 983T377 588T480 194T805 -123L696 -289Z" />
<glyph unicode=")" glyph-name="parenright" horiz-adv-x="903" d="M207 -289L98 -123Q320 25 423 193T526 588T423 983T98 1298L207 1464Q774 1154 774 588Q774 23 207 -289Z" />
<glyph unicode="*" glyph-name="asterisk" horiz-adv-x="880" d="M369 782L397 1032L193 883L119 1008L352 1110L119 1212L193 1337L397 1188L369 1438H512L483 1188L688 1337L762 1212L528 1110L762 1008L688 883L483 1032L512 782H369Z" />
<glyph unicode="+" glyph-name="plus" horiz-adv-x="1298" d="M532 217V608H139V836H532V1225H766V836H1159V608H766V217H532Z" />
<glyph unicode="," glyph-name="comma" horiz-adv-x="550" d="M96 -299L70 -193Q258 -155 246 0H139V283H412V43Q412 -123 334 -204T96 -299Z" />
<glyph unicode="-" glyph-name="hyphen" horiz-adv-x="835" d="M115 506V750H721V506H115Z" />
<glyph unicode="." glyph-name="period" horiz-adv-x="550" d="M139 0V283H412V0H139Z" />
<glyph unicode="/" glyph-name="slash" horiz-adv-x="1067" d="M-51 -262L874 1634H1090L164 -262H-51Z" />
<glyph unicode="0" glyph-name="zero" horiz-adv-x="1482" d="M739 -25Q555 -25 412 74T193 340T117 713V717Q117 921 194 1089T415 1358T743 1458T1069 1359T1289 1093T1366 721V717Q1366 564 1321 428T1195 192T996 34T739 -25ZM634 203T743 203T935 272T1062
456T1106 713V717Q1106 858 1061 974T932 1161T739 1231T548 1163T421 980T377 721V717Q377 575 421 459T550 273Z" />
<glyph unicode="1" glyph-name="one" horiz-adv-x="811" d="M365 0V1188L106 1116L53 1321L440 1444H614V0H365Z" />
<glyph unicode="2" glyph-name="two" horiz-adv-x="1255" d="M100 0V199L594 618Q746 748 804 830T862 1006Q862 1109 797 1169T631 1229Q537 1229 462 1178T301 1014L121 1155Q194 1257 262 1319T428 1417T649 1454Q860 1454 991 1336T1122 1026V1022Q1122 955
1107 897T1065 790T990 686T887 583T750 467L455 221H1137V0H100Z" />
<glyph unicode="3" glyph-name="three" horiz-adv-x="1265" d="M637 -25Q295 -25 88 227L264 391Q344 297 434 250T641 203Q748 203 818 263T889 420V424Q889 529 801 587T559 645H442L401 803L788 1214H168V1434H1116V1245L717 836Q785 828 844 810T959 759T1053
682T1115 575T1139 434V430Q1139 231 1000 103T637 -25Z" />
<glyph unicode="4" glyph-name="four" horiz-adv-x="1396" d="M844 0V322H121L74 502L870 1444H1085V528H1290V322H1085V0H844ZM373 528H844V1096L373 528Z" />
<glyph unicode="5" glyph-name="five" horiz-adv-x="1275" d="M623 -25Q321 -25 96 195L252 377Q437 205 621 205Q750 205 827 272T905 453V457Q905 565 823 629T608 694Q477 694 344 631L193 731L233 1434H1092V1210H451L428 874Q540 915 655 915Q761 915 851
887T1009 805T1116 663T1155 465V461Q1155 242 1008 109T623 -25Z" />
<glyph unicode="6" glyph-name="six" horiz-adv-x="1343" d="M690 -25Q443 -25 291 127Q204 214 161 340T117 674V678Q117 844 156 985T271 1232T465 1398T731 1458Q865 1458 967 1419T1169 1298L1034 1104Q951 1168 882 1198T723 1229Q651 1229 592 1200T495
1125T431 1018T392 896T379 772Q518 918 723 918Q863 918 975 866T1155 710T1223 467V463Q1223 323 1153 211T961 37T690 -25ZM684 195Q815 195 893 267T971 453V457Q971 566 891 636T678 707Q548 707 468 634T387 455V451Q387 340 469 268T684 195Z" />
<glyph unicode="7" glyph-name="seven" horiz-adv-x="1247" d="M217 0L860 1212H139V1434H1147V1243L502 0H217Z" />
<glyph unicode="8" glyph-name="eight" horiz-adv-x="1290" d="M645 -20Q489 -20 365 30T170 175T98 391V395Q98 636 356 743Q147 854 147 1063V1067Q147 1232 289 1343T645 1454Q860 1454 1001 1344T1143 1067V1063Q1143 854 934 743Q1059 687 1125 604T1192
399V395Q1192 270 1121 175T926 30T645 -20ZM534 827T645 827T828 886T901 1038V1042Q901 1127 830 1185T645 1243T461 1186T389 1044V1040Q389 947 461 887ZM645 190Q783 190 864 252T946 406V410Q946 507 861 567T645 627Q516 627 431 567T346 410V406Q346 315
427 253T645 190Z" />
<glyph unicode="9" glyph-name="nine" horiz-adv-x="1343" d="M618 205Q691 205 751 234T850 309T916 416T954 537T967 657Q840 504 629 504Q400 504 261 628T121 958V963Q121 1175 270 1316T655 1458Q787 1458 881 1421T1055 1307Q1138 1221 1182 1091T1227 760V756Q1227
525 1155 350T942 75T612 -25Q360 -25 154 147L291 340Q374 271 451 238T618 205ZM666 715Q798 715 877 790T956 973V977Q956 1091 874 1166T657 1241Q527 1241 450 1165T373 975V971Q373 857 453 786T666 715Z" />
<glyph unicode=":" glyph-name="colon" horiz-adv-x="571" d="M150 801V1081H422V801H150ZM150 0V283H422V0H150Z" />
<glyph unicode=";" glyph-name="semicolon" horiz-adv-x="571" d="M150 801V1081H422V801H150ZM106 -299L80 -193Q268 -155 256 0H150V283H422V43Q422 -123 344 -204T106 -299Z" />
<glyph unicode="&lt;" glyph-name="less" horiz-adv-x="1298" d="M1116 158L137 610V831L1116 1284V1049L383 723L1116 395V158Z" />
<glyph unicode="=" glyph-name="equal" horiz-adv-x="1298" d="M156 862V1092H1143V862H156ZM156 350V580H1143V350H156Z" />
<glyph unicode="&gt;" glyph-name="greater" horiz-adv-x="1298" d="M184 158V393L915 719L184 1047V1284L1163 831V610L184 158Z" />
<glyph unicode="?" glyph-name="question" horiz-adv-x="1107" d="M424 455L383 786L393 797Q584 803 678 861T772 1024V1028Q772 1116 709 1169T537 1223Q356 1223 203 1061L49 1225Q249 1452 543 1452Q759 1452 891 1339T1024 1036V1032Q1024 938 992 865T902
743T772 664T610 618L590 455H424ZM365 0V283H639V0H365Z" />
<glyph unicode="@" glyph-name="at" horiz-adv-x="2007" d="M1022 -332Q893 -332 773 -300T552 -209T369 -69T229 112T141 325T109 561Q109 706 153 842T280 1089T473 1283T720 1412T1006 1458Q1153 1458 1290 1415T1537 1294T1728 1116T1854 894T1898 647Q1898
522 1866 423T1779 263T1653 169T1501 137Q1389 137 1313 177T1198 281Q1058 137 881 137Q724 137 617 244T510 524Q510 630 549 726T653 889T802 996T975 1036Q1165 1036 1264 885L1288 1008L1487 977L1397 461Q1386 393 1386 373Q1386 306 1429 267T1546 227Q1662
227 1739 336T1817 647Q1817 787 1755 920T1586 1155T1328 1318T1006 1380Q835 1380 683 1315T423 1140T253 879T190 561Q190 393 252 243T423 -16T688 -190T1022 -254Q1169 -254 1287 -221T1528 -117L1565 -178Q1312 -332 1022 -332ZM936 315Q1041 315 1118 395Q1219
496 1219 639Q1219 736 1158 798T1004 860Q899 860 817 778Q721 682 721 537Q721 432 780 374T936 315Z" />
<glyph unicode="A" glyph-name="A" horiz-adv-x="1617" d="M61 0L692 1444H926L1556 0H1290L1145 346H467L319 0H61ZM559 569H1053L805 1143L559 569Z" />
<glyph unicode="B" glyph-name="B" horiz-adv-x="1478" d="M184 0V1434H827Q1075 1434 1202 1307Q1298 1211 1298 1069V1065Q1298 853 1094 745Q1231 699 1304 617T1378 397V393Q1378 204 1235 102T848 0H184ZM1047 1024V1028Q1047 1113 981 1161T795 1210H432V829H776Q901
829 974 878T1047 1024ZM1126 424Q1126 516 1052 566T831 616H432V223H850Q981 223 1053 273T1126 420V424Z" />
<glyph unicode="C" glyph-name="C" horiz-adv-x="1511" d="M850 -25Q696 -25 560 32T328 189T177 424T121 713V717Q121 868 176 1004T327 1240T562 1399T860 1458Q1045 1458 1176 1401T1421 1235L1260 1049Q1166 1135 1070 1181T858 1227Q725 1227 616 1159T446
976T385 721V717Q385 504 520 357T858 209Q982 209 1075 254T1270 393L1432 229Q1310 103 1175 39T850 -25Z" />
<glyph unicode="D" glyph-name="D" horiz-adv-x="1601" d="M184 0V1434H719Q885 1434 1027 1379T1269 1229T1424 1003T1481 721V717Q1481 567 1425 435T1269 207T1028 56T719 0H184ZM719 1204H436V229H719Q943 229 1080 364T1217 713V717Q1217 930 1080 1067T719 1204Z" />
<glyph unicode="E" glyph-name="E" horiz-adv-x="1372" d="M184 0V1434H1247V1208H436V836H1155V610H436V225H1257V0H184Z" />
<glyph unicode="F" glyph-name="F" horiz-adv-x="1343" d="M184 0V1434H1251V1204H436V813H1159V584H436V0H184Z" />
<glyph unicode="G" glyph-name="G" horiz-adv-x="1605" d="M864 -25Q645 -25 475 72T213 337T121 713V717Q121 866 176 1001T328 1238T563 1398T860 1458Q1040 1458 1167 1411T1411 1264L1251 1073Q1160 1151 1069 1189T850 1227Q721 1227 614 1158T446 973T385
721V717Q385 494 520 350T872 205Q1071 205 1219 313V582H852V801H1462V199Q1201 -25 864 -25Z" />
<glyph unicode="H" glyph-name="H" horiz-adv-x="1556" d="M184 0V1434H436V838H1120V1434H1372V0H1120V604H436V0H184Z" />
<glyph unicode="I" glyph-name="I" horiz-adv-x="649" d="M199 0V1434H451V0H199Z" />
<glyph unicode="J" glyph-name="J" horiz-adv-x="1146" d="M502 -20Q211 -20 43 211L209 383Q275 297 343 255T498 213Q603 213 664 284T725 496V1434H985V487Q985 241 850 106Q722 -20 502 -20Z" />
<glyph unicode="K" glyph-name="K" horiz-adv-x="1486" d="M184 0V1434H436V713L1118 1434H1430L831 817L1456 0H1149L659 645L436 416V0H184Z" />
<glyph unicode="L" glyph-name="L" horiz-adv-x="1267" d="M184 0V1434H436V229H1190V0H184Z" />
<glyph unicode="M" glyph-name="M" horiz-adv-x="1777" d="M184 0V1434H453L889 756L1325 1434H1593V0H1341V1028L889 352H881L432 1024V0H184Z" />
<glyph unicode="N" glyph-name="N" horiz-adv-x="1617" d="M184 0V1434H418L1186 442V1434H1434V0H1223L432 1020V0H184Z" />
<glyph unicode="O" glyph-name="O" horiz-adv-x="1740" d="M868 -25Q653 -25 481 75T215 343T121 713V717Q121 867 177 1002T331 1238T570 1398T872 1458Q1034 1458 1174 1400T1412 1241T1564 1006T1620 721V717Q1620 567 1564 431T1410 195T1171 35T868 -25ZM733
209T872 209T1122 276T1295 459T1356 713V717Q1356 855 1294 971T1120 1157T868 1227T618 1159T446 975T385 721V717Q385 578 447 462T621 278Z" />
<glyph unicode="P" glyph-name="P" horiz-adv-x="1368" d="M184 0V1434H750Q1000 1434 1147 1303T1294 954V950Q1294 833 1249 739T1126 585T944 493T721 461H436V0H184ZM436 688H729Q870 688 954 759T1038 944V948Q1038 1072 956 1138T729 1204H436V688Z" />
<glyph unicode="Q" glyph-name="Q" horiz-adv-x="1740" d="M1638 137L1477 -43L1305 111Q1109 -25 868 -25Q653 -25 481 75T215 343T121 713V717Q121 867 177 1002T331 1238T570 1398T872 1458Q1034 1458 1174 1400T1412 1241T1564 1006T1620 721V717Q1620 473
1475 276L1638 137ZM733 209T872 209T1120 274L872 485L1034 670L1286 440Q1356 561 1356 713V717Q1356 855 1294 971T1120 1157T868 1227T618 1159T446 975T385 721V717Q385 578 447 462T621 278Z" />
<glyph unicode="R" glyph-name="R" horiz-adv-x="1480" d="M184 0V1434H823Q1090 1434 1237 1290Q1356 1168 1356 981V977Q1356 807 1264 698T1016 543L1403 0H1104L752 500H436V0H184ZM436 723H805Q940 723 1020 788T1100 963V967Q1100 1081 1022 1142T803 1204H436V723Z"
/>
<glyph unicode="S" glyph-name="S" horiz-adv-x="1310" d="M686 -20Q344 -20 88 209L240 389Q347 296 455 250T692 203Q808 203 877 252T946 383V387Q946 441 921 476T826 544T623 606Q542 626 481 645T364 691T269 749T202 822T159 916T145 1034V1038Q145 1222
282 1338T635 1454Q932 1454 1155 1274L1020 1083Q823 1231 631 1231Q523 1231 460 1183T397 1061V1057Q397 999 425 963T526 895T739 831Q976 774 1087 679T1198 412V408Q1198 209 1057 95T686 -20Z" />
<glyph unicode="T" glyph-name="T" horiz-adv-x="1327" d="M537 0V1200H82V1434H1245V1200H791V0H537Z" />
<glyph unicode="U" glyph-name="U" horiz-adv-x="1550" d="M772 -23Q487 -23 325 139T162 608V1434H414V618Q414 421 509 316T776 211Q946 211 1041 312T1137 608V1434H1389V621Q1389 307 1225 142T772 -23Z" />
<glyph unicode="V" glyph-name="V" horiz-adv-x="1536" d="M657 -10L61 1434H340L772 332L1202 1434H1475L881 -10H657Z" />
<glyph unicode="W" glyph-name="W" horiz-adv-x="2285" d="M573 -10L74 1434H346L688 371L1040 1438H1253L1606 371L1948 1434H2212L1714 -10H1495L1143 1020L791 -10H573Z" />
<glyph unicode="X" glyph-name="X" horiz-adv-x="1492" d="M1108 1434H1397L897 733L1417 0H1120L741 547L365 0H76L594 729L96 1434H393L750 913L1108 1434Z" />
<glyph unicode="Y" glyph-name="Y" horiz-adv-x="1466" d="M606 0V565L37 1434H336L735 801L1141 1434H1430L860 571V0H606Z" />
<glyph unicode="Z" glyph-name="Z" horiz-adv-x="1437" d="M133 0V186L979 1210H160V1434H1309V1247L461 223H1309V0H133Z" />
<glyph unicode="[" glyph-name="bracketleft" horiz-adv-x="931" d="M180 -266V1434H811V1239H418V-72H811V-266H180Z" />
<glyph unicode="\" glyph-name="backslash" horiz-adv-x="1067" d="M903 -262L-23 1634H193L1118 -262H903Z" />
<glyph unicode="]" glyph-name="bracketright" horiz-adv-x="931" d="M121 -266V-72H514V1239H121V1434H752V-266H121Z" />
<glyph unicode="^" glyph-name="asciicircum" horiz-adv-x="1024" d="M115 1010L424 1436H600L909 1010H719L510 1280L301 1010H115Z" />
<glyph unicode="_" glyph-name="underscore" horiz-adv-x="1228" d="M-4 -328V-135H1233V-328H-4Z" />
<glyph unicode="`" glyph-name="grave" horiz-adv-x="1024" d="M506 1219L254 1454L479 1554L692 1219H506Z" />
<glyph unicode="a" glyph-name="a" horiz-adv-x="1202" d="M467 -23Q363 -23 278 14T138 129T84 311V315Q84 486 204 575T530 664Q678 664 821 618V645Q821 760 753 820T553 881Q407 881 244 813L178 1008Q276 1052 370 1074T586 1096Q826 1096 944 975Q1061 861
1061 641V0H819V135Q686 -23 467 -23ZM537 158Q661 158 743 222T825 389V463Q712 506 580 506Q460 506 393 458T326 326V322Q326 245 385 202T537 158Z" />
<glyph unicode="b" glyph-name="b" horiz-adv-x="1374" d="M772 -23Q548 -23 403 168V0H156V1495H403V901Q547 1104 772 1104Q868 1104 957 1066T1118 959T1231 782T1274 543V539Q1274 409 1232 301T1119 123T959 15T772 -23ZM713 193Q844 193 933 288T1022 539V543Q1022
696 932 792T713 889Q583 889 490 792T397 543V539Q397 388 490 291T713 193Z" />
<glyph unicode="c" glyph-name="c" horiz-adv-x="1169" d="M655 -25Q498 -25 369 50T168 254T96 535V539Q96 691 168 820T370 1027T659 1104Q802 1104 905 1056T1092 918L936 752Q872 818 808 852T657 887Q524 887 434 787T344 543V539Q344 392 435 293T668 193Q818
193 948 326L1098 178Q1009 79 906 27T655 -25Z" />
<glyph unicode="d" glyph-name="d" horiz-adv-x="1374" d="M602 -23Q506 -23 417 15T256 122T143 300T100 539V543Q100 673 142 781T254 958T414 1066T602 1104Q826 1104 971 913V1495H1219V0H971V180Q826 -23 602 -23ZM662 193Q790 193 882 290T975 539V543Q975
695 883 792T662 889Q530 889 440 795T350 543V539Q350 386 441 290T662 193Z" />
<glyph unicode="e" glyph-name="e" horiz-adv-x="1236" d="M651 -25Q495 -25 369 45T170 244T96 537V541Q96 695 163 823T352 1028T625 1104Q750 1104 850 1057T1014 930T1110 745T1143 522Q1143 501 1139 453H344Q364 323 448 251T655 178Q743 178 812 209T948
307L1094 178Q924 -25 651 -25ZM342 616H897Q884 741 813 821T623 901Q511 901 436 823T342 616Z" />
<glyph unicode="f" glyph-name="f" horiz-adv-x="770" d="M211 0V868H74V1075H211V1155Q211 1333 299 1421Q384 1507 543 1507Q647 1507 743 1479V1270Q663 1296 598 1296Q455 1296 455 1133V1073H741V868H459V0H211Z" />
<glyph unicode="g" glyph-name="g" horiz-adv-x="1374" d="M637 -332Q367 -332 154 -203L246 -16Q431 -131 631 -131Q797 -131 885 -46T973 201V285Q899 189 809 138T592 86Q496 86 408 121T251 219T141 379T100 592V596Q100 712 141 809T252 970T409 1069T592
1104Q718 1104 808 1055T971 920V1081H1219V221Q1219 -48 1081 -186Q936 -332 637 -332ZM657 297Q789 297 882 381T975 594V598Q975 727 882 811T657 895Q526 895 438 812T350 598V594Q350 464 438 381T657 297Z" />
<glyph unicode="h" glyph-name="h" horiz-adv-x="1269" d="M156 0V1495H403V915Q534 1104 741 1104Q922 1104 1024 992T1126 690V0H879V614Q879 740 819 809T647 879Q538 879 471 807T403 610V0H156Z" />
<glyph unicode="i" glyph-name="i" horiz-adv-x="585" d="M160 1247V1483H426V1247H160ZM170 0V1081H418V0H170Z" />
<glyph unicode="j" glyph-name="j" horiz-adv-x="585" d="M160 1247V1483H426V1247H160ZM104 -334Q49 -334 -16 -324V-125Q20 -131 53 -131Q170 -131 170 0V1081H418V-14Q418 -334 104 -334Z" />
<glyph unicode="k" glyph-name="k" horiz-adv-x="1191" d="M156 0V1495H403V602L852 1081H1153L723 641L1167 0H877L557 469L403 309V0H156Z" />
<glyph unicode="l" glyph-name="l" horiz-adv-x="585" d="M170 0V1495H418V0H170Z" />
<glyph unicode="m" glyph-name="m" horiz-adv-x="1945" d="M156 0V1081H403V918Q465 1004 542 1054T733 1104Q847 1104 929 1053T1057 913Q1200 1104 1421 1104Q1599 1104 1699 996T1800 690V0H1552V614Q1552 743 1495 811T1333 879Q1229 879 1166 809T1102 610V0H854V616Q854
741 796 810T635 879Q531 879 467 806T403 610V0H156Z" />
<glyph unicode="n" glyph-name="n" horiz-adv-x="1269" d="M156 0V1081H403V915Q534 1104 741 1104Q922 1104 1024 992T1126 690V0H879V614Q879 740 819 809T647 879Q538 879 471 807T403 610V0H156Z" />
<glyph unicode="o" glyph-name="o" horiz-adv-x="1345" d="M670 -25Q508 -25 376 50T170 254T96 535V539Q96 692 170 821T378 1027T674 1104Q796 1104 903 1060T1086 940T1205 761T1249 543V539Q1249 425 1205 321T1085 141T901 20T670 -25ZM674 193Q820 193 910
292T1001 535V539Q1001 684 907 785T670 887Q524 887 434 788T344 543V539Q344 395 437 294T674 193Z" />
<glyph unicode="p" glyph-name="p" horiz-adv-x="1374" d="M156 -328V1081H403V901Q547 1104 772 1104Q868 1104 957 1066T1118 959T1231 782T1274 543V539Q1274 409 1232 301T1119 123T959 15T772 -23Q548 -23 403 168V-328H156ZM713 193Q844 193 933 288T1022
539V543Q1022 696 932 792T713 889Q583 889 490 792T397 543V539Q397 388 490 291T713 193Z" />
<glyph unicode="q" glyph-name="q" horiz-adv-x="1374" d="M971 -328V180Q826 -23 602 -23Q506 -23 417 15T256 122T143 300T100 539V543Q100 673 142 781T254 958T414 1066T602 1104Q826 1104 971 913V1081H1219V-328H971ZM662 193Q790 193 882 290T975 539V543Q975
695 883 792T662 889Q530 889 440 795T350 543V539Q350 386 441 290T662 193Z" />
<glyph unicode="r" glyph-name="r" horiz-adv-x="845" d="M156 0V1081H403V838Q457 966 553 1037T786 1102V840H772Q604 840 504 730T403 412V0H156Z" />
<glyph unicode="s" glyph-name="s" horiz-adv-x="1026" d="M526 -20Q409 -20 288 21T68 141L178 309Q358 176 532 176Q612 176 656 207T700 293V297Q700 325 684 347T634 386T568 415T483 442Q467 447 459 449Q402 465 362 479T272 520T193 578T142 657T121 766V770Q121
920 230 1010T506 1100Q606 1100 711 1068T903 977L805 801Q635 903 500 903Q429 903 389 874T348 797V793Q348 734 445 691Q479 675 592 639Q648 622 688 606T777 563T856 505T907 427T928 324V319Q928 155 816 68T526 -20Z" />
<glyph unicode="t" glyph-name="t" horiz-adv-x="841" d="M518 -18Q207 -18 207 299V868H70V1081H207V1378H455V1081H745V868H455V338Q455 203 588 203Q668 203 741 240V37Q645 -18 518 -18Z" />
<glyph unicode="u" glyph-name="u" horiz-adv-x="1269" d="M528 -23Q348 -23 246 89T143 393V1081H391V467Q391 341 451 273T623 205Q732 205 799 276T866 471V1081H1116V0H866V168Q737 -23 528 -23Z" />
<glyph unicode="v" glyph-name="v" horiz-adv-x="1218" d="M498 -8L53 1081H319L610 287L903 1081H1163L721 -8H498Z" />
<glyph unicode="w" glyph-name="w" horiz-adv-x="1763" d="M416 -8L66 1081H319L537 340L776 1085H989L1229 340L1450 1081H1700L1346 -8H1122L881 731L637 -8H416Z" />
<glyph unicode="x" glyph-name="x" horiz-adv-x="1187" d="M346 1081L596 719L846 1081H1110L729 553L1126 0H856L590 385L326 0H61L457 551L76 1081H346Z" />
<glyph unicode="y" glyph-name="y" horiz-adv-x="1220" d="M625 279L905 1081H1163L733 -31Q668 -197 588 -265T377 -334Q243 -334 121 -268L205 -84Q279 -125 350 -125Q403 -125 438 -98T504 -2L53 1081H319L625 279Z" />
<glyph unicode="z" glyph-name="z" horiz-adv-x="1146" d="M106 0V170L731 879H129V1081H1047V911L422 203H1047V0H106Z" />
<glyph unicode="{" glyph-name="braceleft" horiz-adv-x="997" d="M852 -289Q714 -264 622 -227T479 -137T408 -23T387 121Q387 136 389 193T391 268Q391 389 339 441T160 494H106V682H160Q286 682 338 735T391 909Q391 927 389 984T387 1057Q387 1140 407 1200T479
1313T622 1402T852 1464L895 1300Q803 1275 748 1250T664 1190T625 1118T616 1020Q616 1000 618 945T621 868Q621 753 568 688T408 588Q516 553 568 488T621 307Q621 285 619 231T616 156Q616 95 625 58T663 -14T747 -74T895 -125L852 -289Z" />
<glyph unicode="|" glyph-name="bar" horiz-adv-x="677" d="M240 -262V1634H438V-262H240Z" />
<glyph unicode="}" glyph-name="braceright" horiz-adv-x="997" d="M145 -289L102 -125Q195 -99 249 -74T333 -15T372 57T381 156Q381 176 379 230T377 307Q377 422 430 488T590 588Q482 623 430 688T377 868Q377 890 379 945T381 1020Q381 1081 372 1118T334
1190T249 1250T102 1300L145 1464Q283 1439 375 1402T518 1313T589 1201T610 1057Q610 1042 608 985T606 909Q606 788 659 735T838 682H891V494H838Q712 494 659 442T606 268Q606 250 608 193T610 121Q610 38 590 -23T518 -137T375 -227T145 -289Z" />
<glyph unicode="~" glyph-name="asciitilde" horiz-adv-x="1013" d="M664 489Q596 489 494 535Q398 571 371 571Q328 571 305 548T258 469L121 512Q157 642 208 704T350 766Q410 766 520 723Q603 686 643 686Q685 686 709 708T756 786L893 745Q857 614 805 552T664 489Z" />
</font>
</defs>
</svg>
